<svg width="218" height="205" viewBox="0 0 218 205" fill="none" xmlns="http://www.w3.org/2000/svg">
<g clip-path="url(#clip0_1075_9729)">
<path opacity="0.25" d="M160.874 204.01C177.168 204.01 190.377 202.904 190.377 201.539C190.377 200.175 177.168 199.068 160.874 199.068C144.579 199.068 131.37 200.175 131.37 201.539C131.37 202.904 144.579 204.01 160.874 204.01Z" fill="#68E1FD"/>
<path opacity="0.25" d="M205.306 0.937988H11.9889C5.5003 0.937988 0.240234 6.18405 0.240234 12.6554V122.982C0.240234 129.453 5.5003 134.699 11.9889 134.699H205.306C211.795 134.699 217.055 129.453 217.055 122.982V12.6554C217.055 6.18405 211.795 0.937988 205.306 0.937988Z" fill="#68E1FD"/>
<path opacity="0.25" d="M51.1298 127.885C68.1101 128.628 85.5373 126.692 101.785 131.642C107.681 133.434 113.611 136.385 116.863 141.606C120.055 146.731 120.609 153.85 125.708 157.094C128.394 158.792 131.834 159.009 134.486 160.766C138.402 163.364 139.56 168.641 139.236 173.324C138.913 178.007 137.449 182.583 137.534 187.275C137.598 191.762 139.236 196.407 142.753 199.217C146.269 202.028 151.777 202.473 155.182 199.54C158.192 196.942 158.911 192.564 158.762 188.595C158.613 184.626 157.796 180.622 158.537 176.708C159.533 171.456 163.274 166.833 163.308 161.488C163.308 158.669 162.287 155.969 161.699 153.201C159.431 142.625 164.36 130.887 173.508 125.075C179.042 121.572 185.729 120.142 190.982 116.257C194.792 113.438 197.597 109.511 200.347 105.643C202.305 102.888 204.331 99.946 204.603 96.5751C204.914 92.4146 202.475 88.5937 200.019 85.21C195.079 78.3799 189.724 71.858 183.984 65.681C183.638 65.1587 183.123 64.7705 182.525 64.5812C181.927 64.3919 181.282 64.413 180.697 64.6409C172.771 66.2414 164.207 68.4193 159.311 74.8299C152.598 83.6265 155.659 96.1505 153.492 106.989C152.516 111.847 150.454 116.422 147.461 120.375C146.069 122.205 144.293 123.996 142.012 124.315C138.253 124.837 135.201 121.16 134.03 117.56C132.86 113.96 132.643 109.948 130.489 106.832C127.39 102.336 121.294 101.118 115.828 101.024C106.31 100.867 96.5836 103.105 88.7426 108.484C88.1509 108.908 87.5337 109.367 87.3379 110.059C87.1634 110.674 87.3677 111.332 87.24 111.969C86.9676 113.302 85.4181 113.884 84.0985 114.236C79.4927 115.463 73.9333 116.469 70.4768 113.179C68.7741 111.54 67.9739 109.129 66.2882 107.465C63.7341 104.917 59.72 104.68 56.106 104.646C48.5545 104.573 24.9251 100.905 23.5374 111.727C21.856 124.646 42.4758 127.507 51.1298 127.885Z" fill="#68E1FD"/>
<path d="M21.5752 28.1938H67.8378V112.585H21.5752V28.1938Z" fill="url(#paint0_linear_1075_9729)"/>
<path d="M90.3389 28.1938H136.601V112.585H90.3389V28.1938Z" fill="url(#paint1_linear_1075_9729)"/>
<path d="M159.107 28.1938H205.37V112.585H159.107V28.1938Z" fill="url(#paint2_linear_1075_9729)"/>
<path d="M154.471 156.542C154.259 156.562 154.061 156.66 153.916 156.817C153.77 156.973 153.688 157.178 153.684 157.391V164.918C153.662 167.508 155.608 191.872 155.991 196.627C156.008 196.846 156.107 197.051 156.269 197.201C156.431 197.35 156.643 197.433 156.864 197.434H158.992C159.206 197.434 159.413 197.354 159.571 197.21C159.729 197.065 159.826 196.866 159.843 196.653L162.891 169.036C162.907 168.856 162.98 168.686 163.099 168.55C163.219 168.414 163.378 168.319 163.555 168.28C163.687 168.248 163.824 168.246 163.957 168.276C164.089 168.306 164.213 168.366 164.318 168.452C164.422 168.538 164.506 168.647 164.561 168.77C164.617 168.894 164.642 169.028 164.636 169.163L163.555 196.521C163.551 196.639 163.57 196.756 163.612 196.867C163.654 196.977 163.718 197.078 163.799 197.163C163.881 197.248 163.979 197.316 164.088 197.363C164.197 197.409 164.314 197.433 164.432 197.434H166.786C166.993 197.431 167.192 197.355 167.348 197.22C167.504 197.085 167.606 196.899 167.637 196.695C168.353 192.144 172.145 167.966 172.435 166.234C172.694 164.689 172.635 158.066 172.605 155.569C172.602 155.449 172.573 155.33 172.522 155.221C172.47 155.111 172.396 155.014 172.305 154.934C172.214 154.854 172.108 154.794 171.992 154.757C171.877 154.721 171.755 154.708 171.635 154.72L154.471 156.542Z" fill="#68E1FD"/>
<path d="M172.469 166.256C172.18 167.988 168.387 192.153 167.672 196.717C167.641 196.92 167.538 197.106 167.382 197.242C167.226 197.377 167.027 197.453 166.821 197.455H164.467C164.348 197.455 164.231 197.431 164.123 197.384C164.014 197.338 163.916 197.27 163.834 197.185C163.752 197.099 163.688 196.999 163.646 196.888C163.605 196.778 163.585 196.66 163.59 196.543L164.671 169.185C164.679 169.067 164.663 168.948 164.622 168.837C164.582 168.725 164.519 168.623 164.437 168.538C164.354 168.452 164.255 168.385 164.145 168.34C164.035 168.295 163.917 168.273 163.798 168.276C163.728 168.277 163.658 168.285 163.59 168.302C163.413 168.341 163.253 168.435 163.134 168.571C163.014 168.707 162.941 168.878 162.926 169.058L159.878 196.674C159.864 196.832 159.806 196.983 159.71 197.11C159.615 197.237 159.486 197.334 159.337 197.392C159.233 197.434 159.122 197.456 159.01 197.455H156.881C156.661 197.455 156.448 197.372 156.287 197.222C156.125 197.073 156.026 196.868 156.009 196.649C155.625 191.894 153.68 167.529 153.701 164.939C153.723 162.872 153.701 159.459 153.701 157.722V157.429C153.706 157.216 153.788 157.012 153.933 156.855C154.078 156.699 154.276 156.601 154.489 156.58L171.686 154.772C171.807 154.759 171.929 154.772 172.044 154.809C172.159 154.845 172.266 154.906 172.357 154.985C172.448 155.065 172.522 155.162 172.573 155.272C172.625 155.381 172.653 155.5 172.657 155.621C172.67 158.087 172.729 164.71 172.469 166.256Z" fill="url(#paint3_linear_1075_9729)"/>
<path d="M16.3389 24.2158H65.2236V109.91H16.3389V24.2158ZM85.3369 24.2158H134.222V109.91H85.3369V24.2158ZM154.331 24.2158H203.215V109.91H154.331V24.2158Z" fill="#68E1FD"/>
<path d="M57.4595 79.3129C57.1871 82.2295 57.0849 85.9018 55.9739 88.6274C54.9693 91.0983 51.4149 90.419 49.278 90.453C45.5576 90.5152 41.8386 90.4813 38.121 90.3511C36.3303 90.2888 34.5411 90.2039 32.7532 90.0963C31.1953 89.9987 29.599 90.0963 28.1985 89.4086C28.0004 89.3903 27.8081 89.3315 27.6338 89.2358C27.4595 89.1401 27.3068 89.0096 27.1854 88.8524C26.168 87.4896 26.3085 85.4943 26.2361 83.8471C26.1194 82.0514 26.2628 80.2484 26.6618 78.4936C26.7 78.3731 26.7756 78.2678 26.8778 78.1931C26.98 78.1185 27.1034 78.0782 27.2301 78.0782C27.3568 78.0782 27.4802 78.1185 27.5824 78.1931C27.6845 78.2678 27.7602 78.3731 27.7984 78.4936C28.224 80.2724 28.4496 82.0725 28.7902 83.8725C28.9605 84.7556 29.2414 85.6174 29.3904 86.4835C30.6206 86.3434 31.9445 86.6066 33.1576 86.6873C34.8093 86.7976 36.4609 86.8868 38.1125 86.9547C41.4158 87.0962 44.7219 87.1627 48.0308 87.1543C48.9971 87.1543 49.9591 87.1543 50.9254 87.133C51.4022 87.133 52.3131 87.2646 52.9303 87.2009C52.7813 87.0481 53.1602 86.3264 53.2538 85.8594C53.4114 85.091 53.5518 84.3183 53.6795 83.5456C53.9633 81.8842 54.1761 80.2144 54.318 78.536C54.3862 77.7846 54.782 76.1076 54.6714 75.0675C53.7221 75.0293 52.5728 75.3434 51.7427 75.4199L48.0436 75.7637C45.5775 75.9958 43.1128 76.2421 40.6496 76.5024C38.0501 76.7855 35.4506 77.043 32.8511 77.2751C30.4035 77.5001 27.8963 77.3473 25.4742 77.6105C24.7079 77.6912 24.5419 76.3963 25.2954 76.2732C29.0584 75.6534 32.7532 74.6005 36.5673 74.0698C39.9727 73.5943 43.3781 73.2207 46.8091 72.8259C48.4522 72.6433 50.0996 72.4565 51.7427 72.291C53.1219 72.1509 54.9651 71.5905 56.306 72.1636C58.7366 73.1995 57.6468 77.3261 57.4595 79.3129Z" fill="url(#paint4_linear_1075_9729)"/>
<path d="M33.3412 44.8783C34.3859 46.3108 35.5756 47.6324 36.8913 48.8223C34.0308 51.5309 30.9872 54.7107 29.7357 58.3576C29.1482 60.0557 31.5491 60.8072 32.4728 59.5081C33.7753 57.6783 34.7842 55.6872 36.223 53.9423C37.1339 52.8342 38.1087 51.7814 39.1133 50.754C42.3911 53.4668 45.8476 55.9504 48.6059 59.2449C50.0618 60.9812 52.5775 58.4722 51.1047 56.7528C48.308 53.4923 44.7536 51.1276 41.395 48.5124C44.4854 45.5406 47.6056 42.6155 50.3044 39.2573C51.1047 38.2639 49.7851 36.8502 48.8656 37.8266C45.8603 41.0107 42.4421 43.7702 39.1942 46.7038C37.5985 45.3105 36.1312 43.7774 34.8097 42.123C33.4008 40.3611 31.9662 38.6715 30.0549 37.4318C29.2036 36.8926 28.233 38.1493 28.9865 38.8158C30.8978 40.5097 31.8726 42.8277 33.3412 44.8783Z" fill="url(#paint5_linear_1075_9729)"/>
<path d="M99.7208 49.6586C103.016 48.2151 105.399 44.9886 108.179 42.7937L109.456 41.7875C110.576 42.6663 111.687 43.5621 112.827 44.4324C114.534 45.7605 116.335 46.9637 118.216 48.0326C120.128 49.0982 122.529 50.6605 124.772 50.2232C125.819 50.0194 125.93 48.7246 125.351 48.0368C124.572 47.1198 123.784 46.9585 122.673 46.5085C121.357 45.9679 120.077 45.3425 118.842 44.6362C116.91 43.5367 115.109 42.2376 113.279 40.9852L111.776 39.9535C112.248 39.5842 112.721 39.2148 113.185 38.837C114.036 38.1577 114.888 37.4869 115.739 36.7779C116.263 36.3321 117.867 34.409 118.557 34.583C118.714 34.6264 118.882 34.6058 119.023 34.5258C119.165 34.4457 119.269 34.3129 119.313 34.1564C119.356 33.9999 119.335 33.8325 119.255 33.6912C119.175 33.5499 119.042 33.4461 118.885 33.4028C117.271 32.9783 116.135 34.0778 114.82 34.9227C113.049 36.0562 111.338 37.2831 109.626 38.5101C107.211 36.8696 104.622 35.5013 101.905 34.4302C100.793 34.0056 99.9932 35.8652 101.087 36.3576C103.305 37.3856 105.401 38.6572 107.336 40.1488C106.021 41.0828 104.714 42.0338 103.48 43.0697C101.777 44.5131 100.261 46.0712 98.1713 46.984C96.3281 47.7864 97.9074 50.444 99.7208 49.6586Z" fill="url(#paint6_linear_1075_9729)"/>
<path d="M128.378 59.2492C118.516 59.0947 108.654 59.5683 98.8527 60.6672C98.6647 60.3506 98.3787 60.1035 98.0378 59.963C97.6968 59.8225 97.3194 59.7963 96.9622 59.8882C96.605 59.9801 96.2873 60.1853 96.0571 60.4728C95.8269 60.7603 95.6966 61.1146 95.6857 61.4823C95.5537 64.106 95.5835 66.7467 95.5494 69.3788C95.5494 70.9327 95.0897 73.0936 96.7115 74.0021C98.3334 74.9106 101.258 74.1592 103.067 74.0403C105.794 73.862 108.521 73.6483 111.248 73.3993C116.195 72.9408 121.465 72.6308 126.3 71.5355C127.935 71.1662 128.569 70.177 128.786 68.5637C129.14 65.9146 129.416 63.2527 129.736 60.595C129.821 59.8606 129.042 59.2577 128.378 59.2492ZM126.249 66.5768C126.1 67.7189 126.42 68.6274 125.108 68.8482C124.036 69.0265 122.933 69.0944 121.852 69.2133C118.051 69.6378 114.241 69.9392 110.431 70.2449C108.521 70.3977 106.611 70.5393 104.701 70.6694C103.612 70.7374 102.522 70.7968 101.428 70.8562C100.704 70.8945 99.6232 70.7246 98.9719 70.9751H98.8825V70.1897L98.9336 67.8208C98.9719 65.9995 99.0442 64.1697 99.04 62.3484C108.277 61.8347 117.591 61.7243 126.841 61.9238C126.648 63.4692 126.451 65.0202 126.249 66.5768Z" fill="url(#paint7_linear_1075_9729)"/>
<path d="M124.019 81.9537C119.081 81.9197 114.126 81.9537 109.192 82.1787C105.289 82.3612 101.066 82.3188 97.3711 83.7622C96.6092 83.0108 95.1193 83.6136 94.9575 84.8236C94.4893 88.3261 95.098 92.1215 95.3321 95.6409C95.3875 96.49 96.0515 97.3731 96.9965 97.3009C104.186 96.7193 111.504 95.7131 118.706 95.8957C119.983 95.9296 121.796 96.4433 123.001 95.9891C124.095 95.5645 124.321 94.5414 124.551 93.5097C125.265 90.1701 125.551 86.7535 125.402 83.3419C125.395 82.9772 125.248 82.6291 124.99 82.3704C124.732 82.1117 124.384 81.9624 124.019 81.9537ZM121.818 92.7541L121.72 93.1786H121.601C121.175 92.8942 120.102 93.0342 119.549 93.0003C118.038 92.9069 116.522 92.8984 115.011 92.9281C109.537 93.0427 104.063 93.497 98.5971 93.8621C98.5162 90.9964 98.5034 88.0119 97.9288 85.2396C101.871 84.1952 106.421 84.7472 110.427 84.692C114.5 84.6368 118.574 84.6453 122.648 84.692C122.648 85.7363 122.618 86.785 122.537 87.8336C122.418 89.502 121.899 91.1365 121.818 92.7541Z" fill="url(#paint8_linear_1075_9729)"/>
<path d="M171.771 53.6198C173.095 53.7854 174.58 54.142 175.866 53.5858C178.288 52.533 177.832 49.5612 177.832 47.413C177.832 43.8086 177.862 40.1957 177.832 36.5998C177.811 33.8827 176.768 32.9403 174.061 33.3478C170.519 33.881 166.907 33.7369 163.419 32.9233C163.113 32.8441 162.79 32.8607 162.494 32.9708C162.198 33.0809 161.943 33.2792 161.763 33.5389C161.612 33.5016 161.454 33.5082 161.307 33.5579C161.16 33.6075 161.03 33.6982 160.933 33.8191C159.23 36.1413 159.256 39.0028 159.056 41.7665C158.932 43.5199 158.881 45.2733 158.852 47.0309C158.826 48.2366 158.464 50.0791 159.149 51.1957C159.66 52.0235 160.614 52.1339 161.486 52.274C163.266 52.5627 165.054 52.7877 166.846 53.0127L171.771 53.6198ZM161.789 49.2937C161.342 46.9205 161.691 44.1058 161.618 41.7538C161.559 39.7457 161.372 37.6018 161.823 35.6191C162.026 35.8105 162.278 35.9426 162.551 36.0012C164.701 36.5056 166.895 36.7999 169.102 36.88C170.936 36.9352 172.733 36.6041 174.538 36.481C174.542 36.5205 174.542 36.5603 174.538 36.5998V46.1648C174.538 47.2049 174.87 48.9456 174.538 49.9093C174.372 50.4018 174.61 50.3933 174.023 50.6183C173.699 50.7414 172.92 50.4994 172.58 50.457C171.345 50.3084 170.111 50.1513 168.876 49.9942C167.642 49.8371 166.407 49.68 165.173 49.5314C164.385 49.438 162.798 49.5442 161.789 49.2937Z" fill="url(#paint9_linear_1075_9729)"/>
<path d="M167.357 61.3168C167.089 61.3423 166.821 61.355 166.557 61.3805C166.308 61.3805 166.07 61.4789 165.894 61.6541C165.719 61.8292 165.62 62.0668 165.62 62.3145C165.62 62.5622 165.719 62.7998 165.894 62.9749C166.07 63.1501 166.308 63.2485 166.557 63.2485H166.74C166.659 64.4359 166.659 65.6273 166.74 66.8147C166.778 67.9355 166.782 69.069 167.936 69.6379C169.089 70.2068 170.741 69.9733 171.988 70.0242L177.352 70.2407L188.496 70.695C190.284 70.7714 192.072 70.8563 193.86 70.9115C195.009 70.9497 196.265 71.0431 197.159 70.1643C198.457 68.8907 198.925 64.5179 197.972 63.0192C197.346 62.0301 196.167 62.0301 195.132 61.9239C193.183 61.7201 191.225 61.5673 189.266 61.4272C182.55 60.8818 175.804 60.7967 169.077 61.1725C168.817 60.9948 168.504 60.9121 168.191 60.9384C167.877 60.9647 167.583 61.0984 167.357 61.3168ZM181.285 63.8641C183.669 63.9915 186.048 64.1655 188.428 64.3566C189.547 64.4457 190.663 64.5434 191.782 64.6453C192.595 64.7259 194.204 64.6453 195.243 64.8915C195.32 65.8807 195.269 67.4388 194.817 67.7572C194.366 68.0756 192.055 67.668 191.412 67.6383L183.571 67.2859L176.139 66.9505L172.427 66.7807L170.775 66.7043C170.647 66.7043 170.286 66.6491 169.949 66.6109C169.868 65.5453 170 64.4627 169.928 63.3971C173.695 63.5542 177.492 63.6603 181.285 63.8641Z" fill="url(#paint10_linear_1075_9729)"/>
<path d="M194.672 76.9354C191.442 76.7104 188.168 76.7274 184.933 76.6807C178.62 76.5873 172.35 76.7274 166.097 77.6062C165.522 77.6868 165.45 78.243 165.671 78.6463C165.658 78.6738 165.647 78.7022 165.637 78.7312C165.211 80.0049 165.211 81.3676 164.905 82.6837C164.84 82.9364 164.833 83.2005 164.885 83.4561C164.937 83.7118 165.046 83.9524 165.205 84.1599C165.363 84.3674 165.567 84.5364 165.8 84.6543C166.034 84.7721 166.291 84.8358 166.552 84.8404C172.92 84.7866 179.286 84.8715 185.648 85.0951C188.338 85.197 191.454 85.7744 194.111 85.3456C196.665 84.9211 196.92 82.3738 197.197 80.2129C197.469 78.1369 196.75 77.0797 194.672 76.9354ZM193.395 82.0851C192.714 82.4799 190.646 81.996 189.82 81.9493C187.193 81.7964 184.563 81.6988 181.936 81.6181C177.506 81.4823 173.075 81.42 168.642 81.4313C168.75 80.7052 168.735 79.9663 168.6 79.2449C172.776 79.5166 176.943 79.5718 181.136 79.6695C183.537 79.7204 185.938 79.7374 188.338 79.7926L191.723 79.8817L193.851 79.9497L194.149 79.9794C194.047 80.8497 193.838 81.8177 193.378 82.0851H193.395Z" fill="url(#paint11_linear_1075_9729)"/>
<path d="M79.8806 63.9741C78.4451 63.2069 76.9655 62.5251 75.4493 61.932C75.2141 61.8634 74.9647 61.86 74.7277 61.9221C74.4907 61.9842 74.2752 62.1094 74.1042 62.2844C73.9785 62.4153 73.8776 62.5678 73.8062 62.7344L73.7509 62.8915C73.6802 63.1259 73.6757 63.3752 73.7381 63.6119C73.8004 63.8486 73.9271 64.0636 74.1042 64.2331C74.5913 64.6028 75.1002 64.943 75.6281 65.252L75.2024 65.2732C73.6359 65.3454 71.9673 65.3666 70.4604 65.8251C69.0982 66.2497 69.0173 68.2832 70.4604 68.6611C71.9886 69.0601 73.6317 69.0304 75.2024 69.0389H75.6281C75.08 69.6246 74.5896 70.2615 74.1638 70.9409C73.1166 72.7112 75.4153 74.1801 76.854 73.0126C78.0417 72.0489 78.9611 70.7159 79.9445 69.5526C80.7022 68.6568 81.9153 67.6761 81.9324 66.4025C81.9494 65.1289 80.9193 64.5133 79.8806 63.9741Z" fill="url(#paint12_linear_1075_9729)"/>
<path d="M148.478 63.9362C147.139 63.0754 145.692 62.3932 144.175 61.9069C143.417 61.6989 141.884 61.9281 141.965 63.0489C142.025 63.898 142.625 64.5646 143.408 65.1122C142.659 65.1929 141.906 65.2396 141.148 65.2481C140.075 65.2481 138.879 65.2141 137.87 65.6174C137.658 65.6844 137.469 65.8104 137.326 65.9806C137.183 66.1507 137.092 66.3581 137.063 66.5782C137.034 66.7984 137.068 67.0223 137.162 67.2235C137.256 67.4248 137.406 67.5952 137.594 67.7147C139.096 68.7675 141.25 68.7718 143.238 68.5638C142.629 69.3661 141.961 70.16 141.991 71.2044C141.991 72.1469 142.983 73.0385 143.953 72.6946C145.175 72.27 145.677 71.2214 146.392 70.2068C147.303 68.9119 148.21 67.617 149.104 66.3094C149.33 65.9106 149.392 65.4392 149.275 64.9959C149.158 64.5525 148.872 64.1723 148.478 63.9362Z" fill="url(#paint13_linear_1075_9729)"/>
<path d="M135.665 117.098C135.261 117.136 134.959 116.754 134.72 116.423C134.041 115.468 133.244 114.603 132.349 113.846C132.347 114.662 132.634 115.453 133.158 116.079L132.435 114.567C132.358 114.406 132.217 114.219 132.047 114.274C131.877 114.33 131.881 114.483 131.873 114.618C131.828 115.398 132.084 116.165 132.588 116.762L132.107 115.637C132.034 115.472 131.928 115.281 131.745 115.276C131.562 115.272 131.417 115.557 131.413 115.777C131.407 116.158 131.49 116.535 131.653 116.879C131.817 117.223 132.058 117.524 132.358 117.76C132.266 117.551 132.126 117.367 131.948 117.224C131.77 117.081 131.56 116.982 131.336 116.936C131.2 117.471 131.609 117.989 132.022 118.363C133.26 119.501 137.496 122.519 138.215 119.411C138.403 118.609 137.845 118.163 137.364 117.59C136.649 116.707 136.559 115.4 135.797 114.618C135.759 114.797 135.478 117.119 135.665 117.098Z" fill="url(#paint14_linear_1075_9729)"/>
<path d="M189.59 115.62H189.995C190.105 116.161 190.195 116.704 190.263 117.25C190.297 117.552 190.416 117.946 190.722 117.946C190.813 117.933 190.899 117.898 190.974 117.844C191.048 117.79 191.108 117.719 191.148 117.637C191.753 116.745 191.821 115.616 191.919 114.546C191.919 114.38 192.008 114.164 192.174 114.185C192.34 114.206 192.353 114.372 192.366 114.508C192.44 115.269 192.44 116.035 192.366 116.796C192.316 116.171 192.419 115.543 192.668 114.966C192.842 114.941 192.927 115.17 192.944 115.344C193.004 115.998 192.949 116.657 192.783 117.293C192.834 116.881 192.923 116.475 193.047 116.079C193.085 115.955 193.179 115.807 193.302 115.845C193.426 115.883 193.417 115.985 193.426 116.074C193.496 116.784 193.394 117.501 193.128 118.163C193.165 117.826 193.248 117.497 193.374 117.182C193.451 117.144 193.519 117.259 193.528 117.348C193.529 117.873 193.381 118.388 193.102 118.834C192.446 120.107 190.548 123.478 189.611 120.659C189.403 120.035 189.428 115.62 189.59 115.62Z" fill="url(#paint15_linear_1075_9729)"/>
<path d="M163.756 101.258C163.756 101.258 160.351 105.015 159.835 108.997C159.32 112.979 162.636 113.884 162.977 114.189C163.318 114.495 162.977 117.972 162.977 117.972C162.977 117.972 169.975 119.887 169.196 118.77C167.596 116.486 170.175 113.633 170.175 113.633C170.175 113.633 176.015 99.5766 163.756 101.258Z" fill="url(#paint16_linear_1075_9729)"/>
<path d="M163.122 96.8211C163.375 95.913 163.861 95.0866 164.533 94.4238C165.205 93.7611 166.039 93.285 166.953 93.0427C166.485 93.8008 166.187 94.651 166.08 95.5348C166.284 94.9896 166.608 94.4969 167.028 94.0929C167.448 93.6888 167.953 93.3836 168.506 93.1998C169.62 92.8403 170.807 92.7731 171.954 93.0045C171.314 93.2733 170.726 93.6527 170.218 94.1253L172.708 93.7007C172.159 93.7262 171.818 94.3715 171.912 94.9064C172.058 95.4373 172.373 95.9065 172.81 96.2438C173.87 97.216 175.1 98.0014 176.122 99.016C177.143 100.031 177.982 101.355 177.956 102.794C177.935 104.153 177.143 105.405 176.122 106.305C175.922 106.452 175.759 106.642 175.645 106.862C175.579 107.086 175.552 107.32 175.564 107.554C175.5 108.95 174.287 109.982 173.104 110.746C171.92 111.51 170.618 112.3 170.175 113.625C169.833 113.396 169.545 113.097 169.33 112.748C169.115 112.398 168.977 112.007 168.928 111.6C168.697 111.672 168.482 111.789 168.297 111.944C168.111 112.099 167.958 112.29 167.847 112.504C167.506 112.059 167.327 111.513 167.336 110.954C166.913 111.145 166.545 111.436 166.263 111.803L166.306 107.953C166.706 108.632 167.766 108.258 168.345 107.728C168.987 107.133 169.549 106.199 169.141 105.427C168.77 104.735 167.757 104.607 167.055 104.968C166.383 105.389 165.848 105.995 165.514 106.713C165.067 106.127 165.373 105.282 165.752 104.65C166.131 104.017 166.578 103.376 166.361 102.65C163.534 103.189 162.585 98.842 163.122 96.8211Z" fill="#25233A"/>
<path d="M190.926 121.767L190.798 122.026C189.811 124.005 183.383 136.699 180.62 137.14C177.641 137.616 173.908 133.633 173.908 133.633V134.033L173.529 151.97C173.504 153.165 173.03 154.308 172.202 155.172C171.374 156.037 170.251 156.56 169.055 156.64L157.779 157.399L156.263 157.501C155.749 157.535 155.234 157.458 154.753 157.274C154.272 157.091 153.837 156.806 153.476 156.439C153.116 156.072 152.84 155.632 152.666 155.148C152.492 154.665 152.426 154.15 152.47 153.638L154.343 132.644C154.343 132.644 150.168 137.739 146.715 136.809C143.263 135.879 136.167 120.778 136.167 120.778L138.227 119.416L147.533 128.004C147.533 128.004 148.133 127.524 151.364 122.506C154.595 117.488 159.154 116.885 160.729 116.529C161.48 116.459 162.237 116.487 162.98 116.614C166.386 117.013 172.239 118.248 173.793 118.77C175.832 119.462 177.624 126.688 179.548 128.004C181.472 129.32 188.095 120.383 188.291 120.12L189.445 120.838L190.926 121.767Z" fill="#68E1FD"/>
<path d="M156.612 197.455V199.285L159.166 199.085L159.328 197.455H156.612Z" fill="url(#paint17_linear_1075_9729)"/>
<path d="M164.041 197.455V199.285L166.599 199.085L166.757 197.455H164.041Z" fill="url(#paint18_linear_1075_9729)"/>
<path d="M159.41 198.338C158.773 198.78 158.015 199.016 157.239 199.013C157.091 199.024 156.943 198.991 156.813 198.92C156.685 198.835 156.609 198.682 156.477 198.601C156.36 198.557 156.235 198.54 156.111 198.552C155.987 198.564 155.868 198.604 155.762 198.669L154.016 199.429C153.303 199.666 152.671 200.097 152.19 200.673C152.041 200.873 151.959 201.115 151.956 201.365C151.984 201.562 152.056 201.75 152.166 201.915C152.277 202.081 152.423 202.219 152.595 202.32C153.342 202.811 154.225 203.055 155.119 203.017C156.007 202.981 156.889 202.852 157.75 202.63C158.196 202.576 158.617 202.391 158.958 202.099C159.185 201.835 159.332 201.513 159.384 201.17C159.491 200.665 159.482 200.151 159.58 199.65C159.593 199.544 159.563 198.228 159.41 198.338ZM165.931 199.247C166.174 199.174 166.489 198.368 166.74 198.334C167.251 198.266 167.732 198.826 168.166 199.106C168.875 199.508 169.515 200.021 170.06 200.626C170.486 201.144 170.716 201.947 170.264 202.422C169.945 202.758 168.494 202.779 168.958 202.775H166.404C165.948 202.76 165.494 202.713 165.046 202.634C163.066 202.346 163.747 200.435 163.696 199.446C163.581 197.438 164.811 199.578 165.931 199.247Z" fill="#25233A"/>
<path d="M156.898 153.706C156.784 154.995 157.091 156.286 157.775 157.387L156.259 157.488C155.746 157.522 155.23 157.445 154.749 157.261C154.268 157.078 153.833 156.793 153.473 156.426C153.112 156.059 152.836 155.619 152.662 155.135C152.489 154.652 152.422 154.137 152.467 153.625L154.344 132.644C154.612 130.946 158.269 128.216 158.175 129.596C157.49 140.197 156.992 152.114 156.898 153.706Z" fill="url(#paint19_linear_1075_9729)"/>
<path d="M190.799 122.014C189.811 123.992 183.384 136.686 180.621 137.128C177.641 137.603 173.908 133.621 173.908 133.621V134.02C173.775 133.008 173.863 131.98 174.168 131.006C174.244 130.751 174.389 130.458 174.657 130.441C174.925 130.424 175.036 130.598 175.181 130.751C176.161 131.805 177.312 132.686 178.586 133.358C179.089 133.658 179.661 133.824 180.246 133.842C181.012 133.808 181.681 133.336 182.298 132.878C182.825 132.519 183.31 132.104 183.745 131.638C184.597 130.636 184.971 129.307 185.448 128.076C186.299 125.954 187.598 124.064 188.909 122.201C189.076 121.905 189.332 121.669 189.641 121.526C189.861 121.469 190.094 121.486 190.303 121.574C190.512 121.662 190.686 121.817 190.799 122.014Z" fill="url(#paint20_linear_1075_9729)"/>
<path d="M162.977 116.614C161.319 117.338 159.713 118.175 158.171 119.119C155.391 120.796 149.231 130.038 147.529 130.276C145.826 130.513 138.202 119.416 138.202 119.416L147.533 128.004C147.533 128.004 148.133 127.525 151.364 122.506C154.595 117.488 159.154 116.885 160.729 116.529C161.479 116.459 162.234 116.488 162.977 116.614Z" fill="url(#paint21_linear_1075_9729)"/>
<path d="M189.445 120.833C189.445 120.833 186.716 126.166 183.911 128.607C183.596 128.867 183.23 129.059 182.837 129.172C182.443 129.285 182.031 129.316 181.625 129.263C181.22 129.21 180.829 129.074 180.478 128.864C180.127 128.654 179.824 128.374 179.586 128.042L179.561 128.004C181.446 129.299 188.108 120.383 188.304 120.12L189.445 120.833Z" fill="url(#paint22_linear_1075_9729)"/>
<path d="M159.329 197.455H156.86C156.639 197.455 156.427 197.371 156.265 197.222C156.103 197.072 156.004 196.868 155.987 196.648C155.604 191.893 153.659 167.529 153.68 164.939C153.701 162.872 153.68 159.458 153.68 157.722L154.467 156.546L157.766 157.395C157.766 157.395 157.009 167.83 157.766 172.28C158.499 176.584 159.273 196.152 159.32 197.4C159.329 197.434 159.329 197.455 159.329 197.455Z" fill="url(#paint23_linear_1075_9729)"/>
<path d="M165.411 197.455H164.466C164.348 197.454 164.231 197.43 164.122 197.384C164.014 197.337 163.916 197.269 163.834 197.184C163.752 197.099 163.688 196.998 163.646 196.888C163.604 196.778 163.585 196.66 163.59 196.542L164.671 169.185C164.679 169.066 164.663 168.948 164.622 168.836C164.582 168.725 164.518 168.623 164.436 168.537C164.354 168.452 164.255 168.384 164.145 168.339C164.035 168.294 163.917 168.273 163.798 168.276C164.671 167.495 166.352 168.276 166.701 171.426C167.382 178.053 165.411 197.455 165.411 197.455Z" fill="url(#paint24_linear_1075_9729)"/>
</g>
<defs>
<linearGradient id="paint0_linear_1075_9729" x1="111.265" y1="99.9545" x2="-112.422" y2="0.0576824" gradientUnits="userSpaceOnUse">
<stop stop-opacity="0"/>
<stop offset="0.97"/>
</linearGradient>
<linearGradient id="paint1_linear_1075_9729" x1="180.033" y1="99.9545" x2="-43.6579" y2="0.0577056" gradientUnits="userSpaceOnUse">
<stop stop-opacity="0"/>
<stop offset="0.97"/>
</linearGradient>
<linearGradient id="paint2_linear_1075_9729" x1="248.798" y1="99.9545" x2="25.1106" y2="0.0576687" gradientUnits="userSpaceOnUse">
<stop stop-opacity="0"/>
<stop offset="0.97"/>
</linearGradient>
<linearGradient id="paint3_linear_1075_9729" x1="160.061" y1="205.36" x2="165.146" y2="131.878" gradientUnits="userSpaceOnUse">
<stop stop-opacity="0"/>
<stop offset="0.97"/>
</linearGradient>
<linearGradient id="paint4_linear_1075_9729" x1="41.4626" y1="62.8279" x2="40.747" y2="143.636" gradientUnits="userSpaceOnUse">
<stop stop-opacity="0"/>
<stop offset="0.97"/>
</linearGradient>
<linearGradient id="paint5_linear_1075_9729" x1="41.6078" y1="140.825" x2="36.5988" y2="-176.182" gradientUnits="userSpaceOnUse">
<stop stop-opacity="0"/>
<stop offset="0.97"/>
</linearGradient>
<linearGradient id="paint6_linear_1075_9729" x1="112.968" y1="139.696" x2="107.963" y2="-177.312" gradientUnits="userSpaceOnUse">
<stop stop-opacity="0"/>
<stop offset="0.97"/>
</linearGradient>
<linearGradient id="paint7_linear_1075_9729" x1="113.781" y1="139.683" x2="108.776" y2="-177.324" gradientUnits="userSpaceOnUse">
<stop stop-opacity="0"/>
<stop offset="0.97"/>
</linearGradient>
<linearGradient id="paint8_linear_1075_9729" x1="110.963" y1="139.726" x2="105.954" y2="-177.278" gradientUnits="userSpaceOnUse">
<stop stop-opacity="0"/>
<stop offset="0.97"/>
</linearGradient>
<linearGradient id="paint9_linear_1075_9729" x1="169.8" y1="138.8" x2="164.791" y2="-178.207" gradientUnits="userSpaceOnUse">
<stop stop-opacity="0"/>
<stop offset="0.97"/>
</linearGradient>
<linearGradient id="paint10_linear_1075_9729" x1="183.252" y1="138.588" x2="178.243" y2="-178.419" gradientUnits="userSpaceOnUse">
<stop stop-opacity="0"/>
<stop offset="0.97"/>
</linearGradient>
<linearGradient id="paint11_linear_1075_9729" x1="181.97" y1="138.605" x2="176.961" y2="-178.398" gradientUnits="userSpaceOnUse">
<stop stop-opacity="0"/>
<stop offset="0.97"/>
</linearGradient>
<linearGradient id="paint12_linear_1075_9729" x1="75.8367" y1="49.2382" x2="75.3582" y2="108.526" gradientUnits="userSpaceOnUse">
<stop stop-opacity="0"/>
<stop offset="0.97"/>
</linearGradient>
<linearGradient id="paint13_linear_1075_9729" x1="143.332" y1="49.7819" x2="142.853" y2="109.07" gradientUnits="userSpaceOnUse">
<stop stop-opacity="0"/>
<stop offset="0.97"/>
</linearGradient>
<linearGradient id="paint14_linear_1075_9729" x1="131.311" y1="117.314" x2="138.254" y2="117.314" gradientUnits="userSpaceOnUse">
<stop stop-color="#ECC4D7"/>
<stop offset="0.42" stop-color="#EFD4D1"/>
<stop offset="1" stop-color="#F2EAC9"/>
</linearGradient>
<linearGradient id="paint15_linear_1075_9729" x1="189.462" y1="117.972" x2="193.553" y2="117.972" gradientUnits="userSpaceOnUse">
<stop stop-color="#ECC4D7"/>
<stop offset="0.42" stop-color="#EFD4D1"/>
<stop offset="1" stop-color="#F2EAC9"/>
</linearGradient>
<linearGradient id="paint16_linear_1075_9729" x1="159.78" y1="110.118" x2="171.567" y2="110.118" gradientUnits="userSpaceOnUse">
<stop stop-color="#ECC4D7"/>
<stop offset="0.42" stop-color="#EFD4D1"/>
<stop offset="1" stop-color="#F2EAC9"/>
</linearGradient>
<linearGradient id="paint17_linear_1075_9729" x1="156.608" y1="198.368" x2="159.328" y2="198.368" gradientUnits="userSpaceOnUse">
<stop stop-color="#ECC4D7"/>
<stop offset="0.42" stop-color="#EFD4D1"/>
<stop offset="1" stop-color="#F2EAC9"/>
</linearGradient>
<linearGradient id="paint18_linear_1075_9729" x1="164.041" y1="198.368" x2="166.757" y2="198.368" gradientUnits="userSpaceOnUse">
<stop stop-color="#ECC4D7"/>
<stop offset="0.42" stop-color="#EFD4D1"/>
<stop offset="1" stop-color="#F2EAC9"/>
</linearGradient>
<linearGradient id="paint19_linear_1075_9729" x1="150.466" y1="160.341" x2="173.332" y2="97.0623" gradientUnits="userSpaceOnUse">
<stop stop-opacity="0"/>
<stop offset="0.97"/>
</linearGradient>
<linearGradient id="paint20_linear_1075_9729" x1="182.609" y1="126.089" x2="173.722" y2="155.269" gradientUnits="userSpaceOnUse">
<stop stop-opacity="0"/>
<stop offset="0.97"/>
</linearGradient>
<linearGradient id="paint21_linear_1075_9729" x1="149.146" y1="115.675" x2="159.662" y2="132.763" gradientUnits="userSpaceOnUse">
<stop stop-color="white" stop-opacity="0"/>
<stop offset="0.09" stop-color="white" stop-opacity="0.03"/>
<stop offset="0.22" stop-color="white" stop-opacity="0.11"/>
<stop offset="0.38" stop-color="white" stop-opacity="0.25"/>
<stop offset="0.56" stop-color="white" stop-opacity="0.43"/>
<stop offset="0.76" stop-color="white" stop-opacity="0.67"/>
<stop offset="0.97" stop-color="white" stop-opacity="0.96"/>
<stop offset="1" stop-color="white"/>
</linearGradient>
<linearGradient id="paint22_linear_1075_9729" x1="190.275" y1="124.128" x2="179.408" y2="125.387" gradientUnits="userSpaceOnUse">
<stop stop-color="white" stop-opacity="0"/>
<stop offset="0.09" stop-color="white" stop-opacity="0.03"/>
<stop offset="0.22" stop-color="white" stop-opacity="0.11"/>
<stop offset="0.38" stop-color="white" stop-opacity="0.25"/>
<stop offset="0.56" stop-color="white" stop-opacity="0.43"/>
<stop offset="0.76" stop-color="white" stop-opacity="0.67"/>
<stop offset="0.97" stop-color="white" stop-opacity="0.96"/>
<stop offset="1" stop-color="white"/>
</linearGradient>
<linearGradient id="paint23_linear_1075_9729" x1="164.935" y1="176.809" x2="144.639" y2="177.292" gradientUnits="userSpaceOnUse">
<stop stop-opacity="0"/>
<stop offset="0.97"/>
</linearGradient>
<linearGradient id="paint24_linear_1075_9729" x1="171.754" y1="182.566" x2="156.021" y2="182.938" gradientUnits="userSpaceOnUse">
<stop stop-opacity="0"/>
<stop offset="0.97"/>
</linearGradient>
<clipPath id="clip0_1075_9729">
<rect width="216.814" height="203.072" fill="white" transform="translate(0.240234 0.937988)"/>
</clipPath>
</defs>
</svg>
